<?xml version="1.0" encoding="UTF-8"?>
<svg version="1.1" xmlns="http://www.w3.org/2000/svg" width="1080" height="266">
<path d="M0 0 C4.50005548 1.12501387 4.50005548 1.12501387 7.01545715 3.64796448 C7.86677467 4.49092827 7.86677467 4.49092827 8.73529053 5.35092163 C9.34576233 5.97060822 9.95623413 6.5902948 10.58520508 7.22875977 C11.23778793 7.87929825 11.89037079 8.52983673 12.56272888 9.2000885 C14.72232596 11.35667341 16.87097402 13.52382672 19.01953125 15.69140625 C20.52103783 17.19597171 22.02313699 18.69994601 23.52580261 20.20335388 C26.67844911 23.36060732 29.82611847 26.52271057 32.9699707 29.6887207 C36.98453365 33.73144465 41.00760746 37.76555695 45.03403187 41.79646397 C48.88652136 45.65413447 52.73432052 49.51647043 56.58203125 53.37890625 C57.31027414 54.10902987 58.03851704 54.83915348 58.7888279 55.59140205 C60.87068362 57.68019974 62.94913665 59.77232454 65.02661133 61.86547852 C65.63101044 62.47099548 66.23540955 63.07651245 66.85812378 63.70037842 C70.51157138 67.39004398 73.96111636 71.20874455 77.35896015 75.13436794 C79.5767152 77.65564427 81.91563595 80.0353356 84.29272461 82.40625 C85.02253587 83.13624207 85.02253587 83.13624207 85.7670908 83.88098145 C87.30984883 85.42300561 88.85598637 86.96158631 90.40234375 88.5 C91.36843306 89.46461514 92.33429438 90.42945869 93.29992676 91.39453125 C96.84303577 94.93244241 100.39052208 98.46596767 103.9375 102 C111.878125 109.92 119.81875 117.84 128 126 C128 86.07 128 46.14 128 5 C136.91 5 145.82 5 155 5 C155 65.39 155 125.78 155 188 C151.08601421 186.04300711 148.62615961 183.87016757 145.640625 180.80078125 C145.1325531 180.28750778 144.6244812 179.77423431 144.10101318 179.2454071 C142.47916351 177.60580301 140.8641434 175.95968847 139.25 174.3125 C137.64935279 172.68397962 136.04718026 171.05703964 134.4418335 169.43315125 C133.44595604 168.42529309 132.45275306 167.41478121 131.46295166 166.4009552 C128.86913869 163.77086689 126.20331247 161.29154836 123.394104 158.89212036 C118.60514491 154.71652733 114.12799825 150.26090088 109.64648438 145.76000977 C108.74798767 144.86165909 107.84949097 143.96330841 106.92376709 143.03773499 C104.48405905 140.59831135 102.04742508 138.15583874 99.61137199 135.71276593 C97.05607891 133.15117953 94.49791317 130.59246507 91.94006348 128.03343201 C87.10757887 123.1978516 82.27764687 118.35973002 77.44864893 113.52066797 C70.91549077 106.9741928 64.37835162 100.43169546 57.84144592 93.88896275 C47.55772765 83.59586957 37.27929928 73.29751064 27 63 C27 102.27 27 141.54 27 182 C18.09 182 9.18 182 0 182 C0 121.94 0 61.88 0 0 Z " fill="#2D2D2D" transform="translate(692,41)"/>
<path d="M0 0 C38.61 0 77.22 0 117 0 C117 8.58 117 17.16 117 26 C87.3 26 57.6 26 27 26 C27 42.5 27 59 27 76 C53.4 76 79.8 76 107 76 C107 84.58 107 93.16 107 102 C80.6 102 54.2 102 27 102 C27 118.5 27 135 27 152 C57.69 152 88.38 152 120 152 C120 160.25 120 168.5 120 177 C80.4 177 40.8 177 0 177 C0 118.59 0 60.18 0 0 Z " fill="#006394" transform="translate(253,46)"/>
<path d="M0 0 C8.58 0 17.16 0 26 0 C26 62.7 26 125.4 26 190 C17.42 190 8.84 190 0 190 C-0.33 185.71 -0.66 181.42 -1 177 C-2.670625 178.5778125 -2.670625 178.5778125 -4.375 180.1875 C-15.46954297 189.77179105 -29.4075265 192.69294043 -43.875 192.28515625 C-57.95569194 191.00029311 -69.41056871 185.36303247 -79 175 C-90.242728 160.66175989 -91.99504143 144.57906521 -91 127 C-89.11802363 113.23341693 -82.5307218 102.04980084 -71.83984375 93.21484375 C-58.42965864 83.69872328 -44.02580504 81.57793583 -28 83 C-17.62909901 84.83452313 -8.4294016 89.5705984 -1 97 C-0.67 64.99 -0.34 32.98 0 0 Z M-57 113 C-64.55796504 122.20392188 -65.98966249 131.27828327 -65 143 C-63.15089204 152.53097259 -57.68204703 159.42210621 -50.2109375 165.44140625 C-42.12110233 170.63653737 -32.14451019 170.68288686 -23 169 C-13.95040466 166.37775505 -6.55102089 160.22684546 -2 152 C0.24467079 146.67599745 0.33360465 141.80637147 0.3125 136.125 C0.32861328 135.26519531 0.34472656 134.40539062 0.36132812 133.51953125 C0.36786026 124.91017098 -1.84695711 118.2969728 -7.76953125 111.89453125 C-16.01955162 104.88707087 -25.31744079 102.60611284 -35.87109375 102.72265625 C-43.93212325 103.43717946 -51.23042963 107.40376436 -57 113 Z " fill="#006394" transform="translate(489,34)"/>
<path d="M0 0 C3.14636367 1.56889368 6.17842239 3.28546983 9.19091797 5.09375 C10.13108261 5.65250572 10.13108261 5.65250572 11.09024048 6.22254944 C13.14551173 7.44552896 15.19754638 8.67382686 17.24951172 9.90234375 C18.69316058 10.76305503 20.13692849 11.62356667 21.58081055 12.48388672 C31.84460521 18.60690743 42.06294251 24.80317283 52.26147461 31.03417969 C58.38512407 34.76516818 64.53656916 38.43832504 70.73779297 42.0390625 C71.40513962 42.4271106 72.07248627 42.81515869 72.76005554 43.21496582 C75.98479803 45.0886383 79.21360271 46.95467724 82.44946289 48.80908203 C83.61208997 49.48190493 84.77461183 50.15490968 85.93701172 50.828125 C86.95279297 51.41118408 87.96857422 51.99424316 89.01513672 52.5949707 C91.60676397 54.2874378 93.59544169 56.06993002 95.68701172 58.33984375 C90.33140309 59.76871542 84.9745414 61.19275222 79.61645508 62.61230469 C77.79351017 63.09599944 75.97091609 63.5810184 74.14868164 64.06738281 C71.53085767 64.76584932 68.91181301 65.45955913 66.29248047 66.15234375 C65.47676071 66.37108154 64.66104095 66.58981934 63.82060242 66.81518555 C60.70057515 67.63648997 57.92816349 68.33984375 54.68701172 68.33984375 C55.01701172 74.27984375 55.34701172 80.21984375 55.68701172 86.33984375 C52.76791402 87.31287632 51.09382989 87.42198786 48.07373047 87.33203125 C31.56631913 86.98624227 16.48952649 88.08728395 1.99169922 96.99609375 C-0.31298828 98.33984375 -0.31298828 98.33984375 -2.62548828 98.33984375 C-5.06467827 97.43223817 -6.68221484 96.47019453 -8.81298828 95.02734375 C-17.48084079 89.34215532 -28.37371192 87.37734343 -38.58642578 87.0234375 C-39.74013672 86.98154297 -40.89384766 86.93964844 -42.08251953 86.89648438 C-43.27232422 86.85716797 -44.46212891 86.81785156 -45.68798828 86.77734375 C-46.90099609 86.73416016 -48.11400391 86.69097656 -49.36376953 86.64648438 C-52.34672112 86.54078924 -55.32984053 86.43984942 -58.31298828 86.33984375 C-58.64298828 81.05984375 -58.97298828 75.77984375 -59.31298828 70.33984375 C-60.45364746 70.01185791 -61.59430664 69.68387207 -62.76953125 69.34594727 C-66.99307988 68.13095035 -71.21588878 66.91339997 -75.43847656 65.69506836 C-77.26770201 65.1676758 -79.09712853 64.64098011 -80.92675781 64.11499023 C-83.55342673 63.35973394 -86.17936728 62.60199149 -88.80517578 61.84375 C-89.62605682 61.60829971 -90.44693787 61.37284943 -91.29269409 61.13026428 C-97.08524487 59.45371546 -97.08524487 59.45371546 -99.31298828 58.33984375 C-99.31298828 57.67984375 -99.31298828 57.01984375 -99.31298828 56.33984375 C-98.34365356 55.78393555 -98.34365356 55.78393555 -97.35473633 55.21679688 C-83.65758585 47.3547985 -70.01630355 39.41257655 -56.44482422 31.33520508 C-47.51098783 26.02694626 -38.52161099 20.82048984 -29.49584961 15.67016602 C-24.55116717 12.83706461 -19.65832328 9.96211144 -14.85986328 6.88671875 C-14.03172119 6.35925049 -13.2035791 5.83178223 -12.3503418 5.28833008 C-10.83241115 4.31228096 -9.32419338 3.3208808 -7.82836914 2.3112793 C-2.93092532 -0.83652333 -2.93092532 -0.83652333 0 0 Z " fill="#006394" transform="translate(100.31298828125,0.66015625)"/>
<path d="M0 0 C4.52276036 -0.73452349 8.50976455 -1.03296496 13 0 C15.46219603 2.74975177 16.80749176 5.48953944 18.3984375 8.8125 C22.09887486 16.1772729 28.33642444 21.15030909 36 24 C44.4299696 26.53584451 52.21082019 25.00428729 60.2734375 21.97265625 C65.31132463 20.17547302 65.31132463 20.17547302 68 20 C70.40356445 21.72241211 70.40356445 21.72241211 72.86328125 24.27734375 C73.74951172 25.18291016 74.63574219 26.08847656 75.54882812 27.02148438 C76.470385 27.99317395 77.39160474 28.96518337 78.3125 29.9375 C79.25185723 30.90695549 80.19259806 31.87507238 81.13476562 32.84179688 C83.43715085 35.21502472 85.72443509 37.60108966 88 40 C93.06623768 35.76183463 97.80038069 31.32591037 102.4375 26.625 C103.07365234 25.98433594 103.70980469 25.34367187 104.36523438 24.68359375 C105.91250332 23.12469121 107.45736492 21.56348584 109 20 C109.67546875 20.20496094 110.3509375 20.40992188 111.046875 20.62109375 C111.93890625 20.89050781 112.8309375 21.15992188 113.75 21.4375 C114.63171875 21.70433594 115.5134375 21.97117188 116.421875 22.24609375 C117.27265625 22.49488281 118.1234375 22.74367187 119 23 C119.60070312 23.18949219 120.20140625 23.37898438 120.8203125 23.57421875 C129.89527686 25.34692684 140.0401332 25.27126872 148.05859375 20.4140625 C155.39910859 15.06745008 159.1724979 8.48250629 162 0 C166.29 0 170.58 0 175 0 C175.79414961 25.23630983 171.63564061 44.70034891 156 65 C155.44212516 65.7835788 154.88425032 66.56715759 154.30947018 67.3744812 C149.56701968 73.4888697 149.56701968 73.4888697 145.44822884 74.83233643 C142.46093715 75.15461553 139.5902686 75.19440665 136.58618164 75.1328125 C135.46805588 75.14537079 134.34993011 75.15792908 133.19792175 75.17086792 C129.51729472 75.20018368 125.8406405 75.16439406 122.16015625 75.125 C119.59239936 75.12598418 117.02464204 75.1299353 114.45689392 75.13671875 C109.08079384 75.14095731 103.7061486 75.11472054 98.33032227 75.06347656 C92.1347168 75.00484854 85.94108708 75.00307561 79.74531657 75.0320797 C73.76174979 75.05882381 67.77908829 75.04552843 61.7954998 75.0145874 C59.26027681 75.00491337 56.72499646 75.00501248 54.18977547 75.01519775 C50.6397077 75.02359645 47.09289191 74.98656324 43.54321289 74.9375 C42.50345306 74.94852753 41.46369324 74.95955505 40.39242554 74.97091675 C32.6576482 74.79173826 28.54680834 72.27209234 23 67 C22.15308594 66.23816406 21.30617188 65.47632813 20.43359375 64.69140625 C6.26377501 49.57878157 -0.24332915 27.49619409 -0.0625 7.0625 C-0.05798828 6.37865234 -0.05347656 5.69480469 -0.04882812 4.99023438 C-0.0371956 3.32678396 -0.01926694 1.6633795 0 0 Z " fill="#006394" transform="translate(7,160)"/>
<path d="M0 0 C9.86985571 9.07698641 16.37559478 21.28596947 17.9453125 34.65625 C9.0491911 38.51105443 0.01235442 41.8228769 -9.15625 44.95703125 C-10.56929069 45.44287756 -11.98224273 45.92898174 -13.39511108 46.41532898 C-16.3271748 47.42366561 -19.26014695 48.42929774 -22.19384766 49.43286133 C-25.95707236 50.72037761 -29.71808314 52.01422876 -33.47847939 53.30997944 C-36.3823767 54.30994507 -39.28729441 55.30691752 -42.19254684 56.30293846 C-43.58115452 56.77934232 -44.96946495 57.2566135 -46.35747147 57.73476601 C-48.28497146 58.39820371 -50.21398257 59.0572463 -52.14306641 59.71606445 C-53.23938385 60.09181107 -54.33570129 60.46755768 -55.46524048 60.85469055 C-58.0546875 61.65625 -58.0546875 61.65625 -60.0546875 61.65625 C-57.19888452 68.12940342 -51.07620276 71.37791662 -44.8046875 74.03125 C-33.9442938 75.84131562 -25.86816218 74.5977869 -16.0546875 69.65625 C-14.0746875 68.66625 -12.0946875 67.67625 -10.0546875 66.65625 C-4.1146875 76.06125 -4.1146875 76.06125 1.9453125 85.65625 C-10.34579941 95.48913953 -26.42763172 99.92572478 -42.0546875 98.65625 C-56.53743134 96.94240718 -70.18471985 91.8238628 -80.0546875 80.65625 C-90.2392329 67.50966551 -92.94171556 52.96771045 -92.0546875 36.65625 C-90.08189404 22.86341437 -83.48039157 10.12562036 -72.49023438 1.41650391 C-51.04830184 -14.5144758 -21.66961374 -16.6263021 0 0 Z M-60.36328125 20.4765625 C-65.46118528 27.04614783 -67.09997707 34.15632867 -67.0703125 42.34375 C-67.06805664 43.15199219 -67.06580078 43.96023437 -67.06347656 44.79296875 C-67.06057617 45.40785156 -67.05767578 46.02273437 -67.0546875 46.65625 C-53.50201208 42.26322134 -40.05083067 37.63399952 -26.6796875 32.71875 C-26.01322205 32.47410004 -25.34675659 32.22945007 -24.66009521 31.97738647 C-17.75221533 29.56611817 -17.75221533 29.56611817 -11.0546875 26.65625 C-12.8589179 20.24120857 -17.88842218 14.64773127 -23.4921875 11.15625 C-36.79825605 5.37213053 -50.96538446 10.41416796 -60.36328125 20.4765625 Z " fill="#2D2D2D" transform="translate(973.0546875,127.34375)"/>
<path d="M0 0 C8.25 0 16.5 0 25 0 C25.01458252 2.0430835 25.02916504 4.08616699 25.04418945 6.19116211 C25.09470083 12.96863706 25.1613243 19.74588623 25.23571491 26.523139 C25.28029554 30.62909388 25.31957811 34.73495236 25.34643555 38.84106445 C25.37259222 42.80942715 25.41308013 46.77741635 25.46318626 50.74554634 C25.47977191 52.25362029 25.49133759 53.76175872 25.49761391 55.26991081 C25.29020925 68.70775857 25.29020925 68.70775857 31.0625 80.4375 C36.94693621 83.56751926 42.59161286 84.69333007 49.125 83.0625 C57.53234014 80.02688268 62.25531389 74.56912292 65.9921875 66.625 C68.96556267 58.88039491 69.33505235 52.12867099 69.4140625 43.84765625 C69.43342865 42.59238632 69.4527948 41.33711639 69.4727478 40.04380798 C69.52222357 36.72798944 69.56356677 33.41227655 69.60089111 30.09631348 C69.6411027 26.70408418 69.69201293 23.31201603 69.7421875 19.91992188 C69.83962428 13.2800111 69.91935814 6.64022084 70 0 C78.91 0 87.82 0 97 0 C97 33.66 97 67.32 97 102 C89.08 102 81.16 102 73 102 C72.34 97.05 71.68 92.1 71 87 C69.72125 88.52625 68.4425 90.0525 67.125 91.625 C62.56509318 96.67729112 58.0624389 99.9782236 52 103 C51.25492188 103.4125 50.50984375 103.825 49.7421875 104.25 C40.55117814 108.73645881 28.64997879 108.54021835 19 105.5 C10.26798909 101.72543212 4.54768893 95.72140196 1 87 C-0.24166136 83.27501593 -0.13152545 79.82697035 -0.11352539 75.94848633 C-0.11367142 75.12874832 -0.11381744 74.30901031 -0.1139679 73.46443176 C-0.11327096 70.75360472 -0.10548878 68.0428463 -0.09765625 65.33203125 C-0.09579129 63.45301857 -0.09436776 61.5740054 -0.09336853 59.69499207 C-0.08954948 54.74824685 -0.07972438 49.80153098 -0.06866455 44.85479736 C-0.0584373 39.80749915 -0.05386809 34.76019621 -0.04882812 29.71289062 C-0.03810159 19.80857878 -0.02050971 9.90429642 0 0 Z " fill="#006495" transform="translate(552,120)"/>
<path d="M0 0 C0.81350922 -0.00570007 1.62701843 -0.01140015 2.46517944 -0.01727295 C4.19161694 -0.02670535 5.9180723 -0.03324993 7.64453125 -0.03710938 C10.21649458 -0.04666347 12.78760423 -0.07763699 15.359375 -0.109375 C31.24064404 -0.21065848 51.7956073 0.19705268 65.546875 9.07421875 C68.67713185 11.09252109 70.99038765 12.43789813 74.6484375 13.203125 C79.76901657 11.92794588 84.25569901 8.85572987 88.76904297 6.21826172 C101.97445907 -0.91451564 120.54945384 -0.10911762 135.16796875 -0.00268555 C137.8047838 0.01584529 140.44125086 0.01782147 143.078125 0.01757812 C144.77083636 0.02248561 146.46354537 0.02831053 148.15625 0.03515625 C148.93646515 0.03626907 149.7166803 0.0373819 150.52053833 0.03852844 C154.43590056 0.07265259 157.77296626 0.42803075 161.6484375 1.203125 C161.6484375 18.363125 161.6484375 35.523125 161.6484375 53.203125 C157.6884375 53.203125 153.7284375 53.203125 149.6484375 53.203125 C149.4421875 52.295625 149.2359375 51.388125 149.0234375 50.453125 C146.07124385 40.43602654 141.80976699 32.56163848 132.6484375 27.203125 C123.63066226 22.30255623 113.07496223 22.33936917 103.40625 25.12890625 C99.13089191 26.79423695 95.9677295 29.07031008 92.6484375 32.203125 C92.10574219 32.68265625 91.56304687 33.1621875 91.00390625 33.65625 C85.63491211 39.03883653 83.93548349 46.14018886 81.6484375 53.203125 C76.6984375 53.203125 71.7484375 53.203125 66.6484375 53.203125 C66.0090625 51.099375 65.3696875 48.995625 64.7109375 46.828125 C61.55600311 37.54400567 56.19514377 30.75529058 47.3984375 26.140625 C37.75401839 21.71238682 28.39536259 22.62428185 18.6484375 26.203125 C11.20089417 29.54648258 6.07813346 33.69854274 2.6484375 41.203125 C1.38535805 45.19407184 0.49886716 49.09271499 -0.3515625 53.203125 C-4.6415625 53.203125 -8.9315625 53.203125 -13.3515625 53.203125 C-13.3515625 36.043125 -13.3515625 18.883125 -13.3515625 1.203125 C-8.79289947 0.29139239 -4.61067048 0.02552512 0 0 Z " fill="#2D2D2D" transform="translate(20.3515625,95.796875)"/>
<path d="M0 0 C8.25 0 16.5 0 25 0 C25 14.85 25 29.7 25 45 C33.91 45 42.82 45 52 45 C52 51.6 52 58.2 52 65 C43.09 65 34.18 65 25 65 C25 92.06 25 119.12 25 147 C16.75 147 8.5 147 0 147 C0 119.94 0 92.88 0 65 C-5.94 65 -11.88 65 -18 65 C-18 58.4 -18 51.8 -18 45 C-12.06 45 -6.12 45 0 45 C0 30.15 0 15.3 0 0 Z " fill="#2D2D2D" transform="translate(1028,76)"/>
<path d="M0 0 C5.09211997 4.48368652 8.57972629 9.18332829 9.3359375 16.05078125 C9.43160027 24.03862246 8.9036117 29.67143817 3.45703125 35.7109375 C-1.53766565 40.39703757 -7.12356216 43.05203619 -14 43.375 C-20.82341852 43.05452633 -26.47890084 40.42153857 -31.45703125 35.78515625 C-36.24498089 30.24568034 -37.75497839 23.99571206 -37.44140625 16.7734375 C-36.37188073 10.05340989 -33.43129656 4.76361961 -28.125 0.5 C-18.98890752 -5.56787381 -9.35796222 -5.38382762 0 0 Z M-18.3125 8.1875 C-20.49348946 11.82248243 -20.67096636 13.82509823 -20 18 C-17.42950213 21.58311824 -15.74541015 22.78702567 -11.5 24 C-7.5573648 24 -6.0116359 23.49535546 -3 21 C-0.67150953 17.78446554 -0.45542993 14.88978623 -1 11 C-3.19816204 7.67135463 -4.75385391 5.49845844 -8.5 4 C-12.85518519 4 -15.16474011 5.20988929 -18.3125 8.1875 Z " fill="#2D2D2D" transform="translate(149,132)"/>
<path d="M0 0 C5.30899121 3.20653673 8.79625089 8.02204766 10.58984375 13.94921875 C11.93911454 20.69557268 11.20538204 26.91106143 8 33 C4.22260015 38.45624423 0.21668018 41.36773671 -5.9375 43.75 C-13.49258274 44.66576761 -19.34047845 43.85037484 -26 40 C-31.44225691 35.4851689 -34.8841649 30.00883924 -36 23 C-36.35633449 15.83990383 -34.55196712 10.511571 -30 5 C-21.29022076 -3.70977924 -11.11178429 -5.04896768 0 0 Z M-16 8 C-18.63504257 11.06004944 -19.00882651 12.49688882 -18.9375 16.5625 C-17.89631231 20.38018818 -17.24875254 21.77716931 -14 24 C-10.15654948 25.04821378 -7.96369801 25.39424009 -4.25 23.875 C-1.65901488 21.71584574 -0.30560777 20.11895189 1 17 C1 12.9624232 0.28383814 11.35479767 -2.25 8.1875 C-7.40201445 4.08930669 -10.51830439 4.42498112 -16 8 Z " fill="#2D2D2D" transform="translate(63,131)"/>
<path d="M0 0 C14.45532868 -0.02311997 28.91065299 -0.04091331 43.36599636 -0.05181217 C50.07741868 -0.05697489 56.78882932 -0.06401713 63.50024414 -0.07543945 C69.97113736 -0.08626565 76.44201842 -0.09227626 82.91292 -0.09487724 C85.38778945 -0.09673198 87.8626582 -0.1003535 90.33752251 -0.10573006 C93.79070373 -0.11293693 97.24383401 -0.11399109 100.69702148 -0.11352539 C101.73135818 -0.11712067 102.76569489 -0.12071594 103.83137512 -0.12442017 C104.76672089 -0.1230455 105.70206665 -0.12167084 106.66575623 -0.12025452 C107.4833866 -0.12117631 108.30101698 -0.1220981 109.14342403 -0.12304783 C111 0 111 0 112 1 C112 4.63 112 8.26 112 12 C75.04 12 38.08 12 0 12 C0 8.04 0 4.08 0 0 Z " fill="#2D2D2D" transform="translate(38,254)"/>
<path d="M0 0 C14.45532868 -0.02311997 28.91065299 -0.04091331 43.36599636 -0.05181217 C50.07741868 -0.05697489 56.78882932 -0.06401713 63.50024414 -0.07543945 C69.97113736 -0.08626565 76.44201842 -0.09227626 82.91292 -0.09487724 C85.38778945 -0.09673198 87.8626582 -0.1003535 90.33752251 -0.10573006 C93.79070373 -0.11293693 97.24383401 -0.11399109 100.69702148 -0.11352539 C101.73135818 -0.11712067 102.76569489 -0.12071594 103.83137512 -0.12442017 C104.76672089 -0.1230455 105.70206665 -0.12167084 106.66575623 -0.12025452 C107.4833866 -0.12117631 108.30101698 -0.1220981 109.14342403 -0.12304783 C111 0 111 0 112 1 C112 4.63 112 8.26 112 12 C75.04 12 38.08 12 0 12 C0 8.04 0 4.08 0 0 Z " fill="#2D2D2D" transform="translate(38,240)"/>
<path d="M0 0 C10.86363636 0 10.86363636 0 16 3 C19.17125519 6.32981795 20.25743055 8.99730464 20.5 13.5 C20.29010984 17.94517375 18.97072239 20.61667727 16 24 C12 26 12 26 0 26 C0 17.42 0 8.84 0 0 Z " fill="#2D2D2D" transform="translate(152,240)"/>
<path d="M0 0 C-1.57313172 4.72843614 -4.20641235 8.3433843 -7.125 12.3125 C-7.59292969 12.95767578 -8.06085938 13.60285156 -8.54296875 14.26757812 C-9.6905929 15.84848894 -10.84465477 17.42472301 -12 19 C-15.86473719 17.71175427 -16.93622873 15.87208652 -19.4375 12.6875 C-21.63165984 9.90674582 -23.74329882 7.25010783 -26.28125 4.77734375 C-28 3 -28 3 -28.0625 0.875 C-26.50726881 -1.86952563 -25.00891912 -2.14965329 -22 -3 C-14.62736913 -4.76943141 -6.65039638 -3.69120361 0 0 Z " fill="#2D2D2D" transform="translate(108,167)"/>
<path d="M0 0 C0 7.92 0 15.84 0 24 C-5.54619464 22.89076107 -10.48165105 21.0710136 -15.75 19.0625 C-16.72066406 18.70220703 -17.69132812 18.34191406 -18.69140625 17.97070312 C-19.61308594 17.62072266 -20.53476562 17.27074219 -21.484375 16.91015625 C-22.74846191 16.43267944 -22.74846191 16.43267944 -24.03808594 15.94555664 C-26 15 -26 15 -27 13 C-26.20078125 12.64808594 -25.4015625 12.29617187 -24.578125 11.93359375 C-17.54597051 8.77242571 -10.94663929 5.34880444 -4.36328125 1.3203125 C-2 0 -2 0 0 0 Z " fill="#2D2D2E" transform="translate(34,241)"/>
<path d="M0 0 C0 2.97 0 5.94 0 9 C-9.24107143 7.25892857 -9.24107143 7.25892857 -12 4 C-10.56570999 3.32645501 -9.12742943 2.66140299 -7.6875 2 C-6.88699219 1.62875 -6.08648437 1.2575 -5.26171875 0.875 C-3 0 -3 0 0 0 Z " fill="#006394" transform="translate(19,250)"/>
</svg>
